<svg width="30" height="25" viewBox="0 0 30 25" fill="none" xmlns="http://www.w3.org/2000/svg">
<path d="M29.9981 3.3422C28.9129 3.82452 27.7441 4.14934 26.5186 4.29699C27.7711 3.54645 28.7284 2.36035 29.1836 0.945401C28.0123 1.63934 26.7154 2.1438 25.3349 2.41449C24.2325 1.23577 22.6552 0.5 20.9154 0.5C17.0027 0.5 14.1285 4.14934 15.012 7.93894C9.97967 7.68548 5.51335 5.27392 2.52596 1.60981C0.938759 4.33144 1.70406 7.89465 4.40108 9.6984C3.40938 9.66641 2.47675 9.39326 1.65977 8.94048C1.59333 11.7458 3.60625 14.3714 6.51981 14.9571C5.66838 15.1884 4.73328 15.2425 3.78342 15.0604C4.55365 17.4671 6.79542 19.2167 9.44322 19.2659C6.89139 21.2641 3.68499 22.1573 0.46875 21.7784C3.151 23.4985 6.33279 24.5 9.75328 24.5C21.004 24.5 27.3577 14.9989 26.9738 6.47724C28.1599 5.62581 29.1861 4.55783 29.9981 3.3422Z" fill="#000071"/>
</svg>
